<svg id="svg" version="1.1" xmlns="http://www.w3.org/2000/svg" xmlns:xlink="http://www.w3.org/1999/xlink" width="400" height="400" viewBox="0, 0, 400,400"><g id="svgg"><path id="path0" d="M184.074 140.257 C 144.434 141.601,103.034 151.287,65.741 167.945 C 60.483 170.293,42.353 179.369,41.760 179.950 C 41.608 180.099,41.159 184.820,40.762 190.441 C 39.255 211.801,41.819 231.144,48.862 251.549 C 50.139 255.249,56.311 270.139,56.750 270.577 C 56.831 270.659,62.138 269.991,68.542 269.092 C 155.044 256.957,244.956 256.957,331.458 269.092 C 337.862 269.991,343.169 270.659,343.250 270.577 C 343.689 270.139,349.861 255.249,351.138 251.549 C 358.163 231.196,360.748 211.764,359.244 190.610 C 358.851 185.080,358.527 180.440,358.524 180.299 C 358.507 179.539,338.787 169.847,327.677 165.139 C 283.350 146.352,237.689 138.441,184.074 140.257 M130.000 203.209 C 139.914 205.889,151.986 211.325,160.690 217.028 L 165.268 220.028 165.008 222.464 C 161.693 253.417,115.292 250.957,115.040 219.815 C 114.977 212.004,120.696 200.830,124.311 201.702 C 124.894 201.843,127.454 202.521,130.000 203.209 M278.203 203.241 C 287.734 213.298,287.387 228.216,277.392 238.113 C 262.657 252.703,237.203 243.340,234.996 222.519 L 234.732 220.037 237.829 218.025 C 248.327 211.202,259.430 206.193,270.877 203.113 C 276.581 201.579,276.629 201.580,278.203 203.241 " stroke="none" fill="#F8D9C9" fill-rule="evenodd"></path><path id="path1" d="M185.000 0.402 C 120.533 5.115,61.898 41.335,28.262 97.222 C -25.174 186.010,-0.894 302.671,83.538 362.802 C 189.821 438.495,338.855 394.205,386.467 272.778 C 426.662 170.267,375.610 53.853,272.778 13.533 C 245.811 2.959,214.367 -1.745,185.000 0.402 M221.588 140.379 C 268.200 143.148,312.880 155.504,352.247 176.512 L 358.754 179.984 359.384 189.344 C 361.277 217.479,357.101 240.416,345.354 266.405 L 343.295 270.961 332.110 269.383 C 245.700 257.192,154.300 257.192,67.890 269.383 L 56.705 270.961 54.646 266.405 C 42.793 240.182,38.576 216.567,40.682 188.205 L 41.296 179.929 48.148 176.264 C 86.409 155.797,130.269 143.578,176.852 140.408 C 183.414 139.961,214.223 139.941,221.588 140.379 M121.139 204.076 C 105.114 223.331,123.833 250.759,147.921 243.319 C 156.613 240.635,163.940 231.558,164.708 222.525 L 164.918 220.051 161.229 217.634 C 151.338 211.153,140.542 206.290,129.104 203.161 C 123.010 201.494,123.317 201.459,121.139 204.076 M270.741 203.383 C 255.834 207.514,235.546 217.744,235.252 221.277 C 234.710 227.807,240.580 237.613,247.410 241.584 C 268.536 253.867,293.389 230.766,282.195 209.250 C 280.866 206.696,277.006 201.817,276.358 201.873 C 276.222 201.885,273.694 202.564,270.741 203.383 " stroke="none" fill="#3D3A41" fill-rule="evenodd"></path><path id="path2" d="M185.097 140.262 C 185.558 140.351,186.224 140.347,186.578 140.254 C 186.932 140.162,186.556 140.089,185.741 140.093 C 184.926 140.098,184.636 140.173,185.097 140.262 M213.615 140.262 C 214.076 140.351,214.743 140.347,215.097 140.254 C 215.451 140.162,215.074 140.089,214.259 140.093 C 213.444 140.098,213.155 140.173,213.615 140.262 M40.106 204.630 C 40.109 205.648,40.181 206.021,40.266 205.458 C 40.351 204.895,40.349 204.062,40.261 203.606 C 40.173 203.150,40.103 203.611,40.106 204.630 M359.736 204.630 C 359.738 205.648,359.810 206.021,359.895 205.458 C 359.981 204.895,359.978 204.062,359.890 203.606 C 359.802 203.150,359.733 203.611,359.736 204.630 M114.930 219.444 C 114.932 220.667,115.001 221.122,115.083 220.456 C 115.166 219.791,115.164 218.791,115.079 218.234 C 114.995 217.678,114.928 218.222,114.930 219.444 M284.939 220.000 C 284.939 221.528,285.005 222.153,285.085 221.389 C 285.165 220.625,285.165 219.375,285.085 218.611 C 285.005 217.847,284.939 218.472,284.939 220.000 M164.908 221.296 C 164.912 222.111,164.988 222.401,165.077 221.940 C 165.165 221.479,165.162 220.813,165.069 220.459 C 164.977 220.105,164.904 220.481,164.908 221.296 M234.908 221.296 C 234.912 222.111,234.988 222.401,235.077 221.940 C 235.165 221.479,235.162 220.813,235.069 220.459 C 234.977 220.105,234.904 220.481,234.908 221.296 M157.758 237.315 L 156.481 238.704 157.870 237.427 C 159.163 236.239,159.430 235.926,159.147 235.926 C 159.085 235.926,158.460 236.551,157.758 237.315 M121.111 236.412 C 121.111 236.476,121.653 237.018,122.315 237.616 L 123.519 238.704 122.431 237.500 C 121.417 236.378,121.111 236.126,121.111 236.412 M178.070 260.275 C 179.351 260.347,181.351 260.347,182.515 260.273 C 183.678 260.200,182.630 260.141,180.185 260.141 C 177.741 260.142,176.789 260.202,178.070 260.275 M217.700 260.275 C 218.981 260.347,220.981 260.347,222.144 260.273 C 223.307 260.200,222.259 260.141,219.815 260.141 C 217.370 260.142,216.419 260.202,217.700 260.275 M166.949 260.632 C 167.409 260.721,168.076 260.718,168.430 260.625 C 168.784 260.532,168.407 260.460,167.593 260.464 C 166.778 260.468,166.488 260.544,166.949 260.632 M231.764 260.632 C 232.224 260.721,232.891 260.718,233.245 260.625 C 233.599 260.532,233.222 260.460,232.407 260.464 C 231.593 260.468,231.303 260.544,231.764 260.632 M157.319 261.003 C 157.780 261.091,158.447 261.088,158.801 260.995 C 159.155 260.903,158.778 260.830,157.963 260.834 C 157.148 260.838,156.858 260.914,157.319 261.003 M241.393 261.003 C 241.854 261.091,242.521 261.088,242.875 260.995 C 243.229 260.903,242.852 260.830,242.037 260.834 C 241.222 260.838,240.932 260.914,241.393 261.003 " stroke="none" fill="#F8D9C9" fill-rule="evenodd"></path><path id="path3" d="M181.764 140.262 C 182.224 140.351,182.891 140.347,183.245 140.254 C 183.599 140.162,183.222 140.089,182.407 140.093 C 181.593 140.098,181.303 140.173,181.764 140.262 M40.086 208.148 C 40.086 208.861,40.162 209.153,40.255 208.796 C 40.348 208.440,40.348 207.856,40.255 207.500 C 40.162 207.144,40.086 207.435,40.086 208.148 M359.716 208.148 C 359.716 208.861,359.792 209.153,359.885 208.796 C 359.978 208.440,359.978 207.856,359.885 207.500 C 359.792 207.144,359.716 207.435,359.716 208.148 M188.426 260.273 C 189.495 260.348,191.245 260.348,192.315 260.273 C 193.384 260.198,192.509 260.137,190.370 260.137 C 188.231 260.137,187.356 260.198,188.426 260.273 M207.685 260.273 C 208.755 260.348,210.505 260.348,211.574 260.273 C 212.644 260.198,211.769 260.137,209.630 260.137 C 207.491 260.137,206.616 260.198,207.685 260.273 M170.093 260.626 C 170.449 260.719,171.032 260.719,171.389 260.626 C 171.745 260.533,171.454 260.456,170.741 260.456 C 170.028 260.456,169.736 260.533,170.093 260.626 M228.611 260.626 C 228.968 260.719,229.551 260.719,229.907 260.626 C 230.264 260.533,229.972 260.456,229.259 260.456 C 228.546 260.456,228.255 260.533,228.611 260.626 M160.463 260.996 C 160.819 261.089,161.403 261.089,161.759 260.996 C 162.116 260.903,161.824 260.827,161.111 260.827 C 160.398 260.827,160.106 260.903,160.463 260.996 M238.241 260.996 C 238.597 261.089,239.181 261.089,239.537 260.996 C 239.894 260.903,239.602 260.827,238.889 260.827 C 238.176 260.827,237.884 260.903,238.241 260.996 " stroke="none" fill="#F8D9C9" fill-rule="evenodd"></path><path id="path4" d="M184.907 260.255 C 185.264 260.348,185.847 260.348,186.204 260.255 C 186.560 260.162,186.269 260.086,185.556 260.086 C 184.843 260.086,184.551 260.162,184.907 260.255 M213.796 260.255 C 214.153 260.348,214.736 260.348,215.093 260.255 C 215.449 260.162,215.157 260.086,214.444 260.086 C 213.731 260.086,213.440 260.162,213.796 260.255 " stroke="none" fill="#F8D9C9" fill-rule="evenodd"></path></g></svg>
