<?xml version="1.0" standalone="no"?>
<!DOCTYPE svg PUBLIC "-//W3C//DTD SVG 20010904//EN"
 "http://www.w3.org/TR/2001/REC-SVG-20010904/DTD/svg10.dtd">
<svg version="1.0" xmlns="http://www.w3.org/2000/svg"
 width="600.000000pt" height="600.000000pt" viewBox="0 0 600.000000 600.000000"
 preserveAspectRatio="xMidYMid meet">
<metadata>
Created by potrace 1.14, written by Peter Selinger 2001-2017
</metadata>
<g transform="translate(0.000000,600.000000) scale(0.100000,-0.100000)"
fill="#000000" stroke="none">
<path d="M1570 5383 c-89 -9 -207 -47 -307 -99 -106 -56 -152 -90 -241 -177
-329 -323 -382 -833 -128 -1226 45 -70 116 -148 436 -476 97 -99 236 -242 310
-319 162 -166 251 -239 368 -299 81 -42 88 -49 104 -90 l16 -45 -728 -730
c-549 -550 -735 -742 -754 -779 -95 -189 -24 -404 163 -492 47 -22 70 -26 141
-26 71 1 95 5 145 28 33 16 79 46 102 69 50 49 95 144 100 213 2 28 6 61 9 75
4 15 138 158 357 377 193 193 355 359 360 368 24 44 -36 105 -85 86 -38 -16
-736 -724 -753 -764 -8 -20 -15 -52 -15 -71 0 -19 -5 -59 -11 -88 -15 -73 -84
-141 -158 -157 -107 -23 -196 23 -251 129 -21 40 -16 129 10 180 16 31 188
210 555 578 293 292 536 532 541 532 5 0 185 -173 399 -385 302 -298 395 -385
414 -385 19 0 66 41 191 166 l167 165 41 -54 c22 -30 139 -146 259 -258 120
-111 274 -255 343 -319 348 -325 397 -365 527 -427 264 -127 596 -123 862 11
138 70 281 196 368 326 66 98 120 232 154 379 18 82 6 326 -21 421 -40 136
-109 269 -199 378 -28 34 -274 267 -533 504 -30 28 -167 156 -233 218 -122
114 -267 226 -317 242 -7 3 -1 23 14 53 14 28 52 104 85 170 161 321 298 761
348 1120 21 150 37 459 29 554 -7 92 -24 121 -69 121 -20 0 -155 -130 -636
-610 l-611 -609 -39 20 c-21 10 -39 24 -39 31 0 18 -70 150 -108 203 -54 75
-88 113 -290 320 -410 419 -619 628 -667 665 -107 83 -291 161 -425 180 -62 9
-225 11 -300 3z m355 -149 c159 -42 316 -144 465 -300 40 -44 210 -218 376
-389 337 -346 358 -369 416 -467 39 -66 98 -220 98 -256 0 -13 -503 -529 -548
-562 -11 -9 21 33 63 82 92 104 138 257 116 383 -24 135 -49 173 -274 407
-475 493 -659 673 -719 703 -121 58 -294 57 -414 -1 -83 -40 -177 -135 -217
-221 -31 -65 -32 -73 -32 -193 0 -119 1 -128 31 -190 47 -99 50 -101 618 -677
l169 -173 -11 -52 c-30 -146 -35 -196 -29 -300 l7 -108 -23 11 c-12 6 -46 30
-76 53 -71 54 -852 854 -909 931 -56 76 -103 170 -133 265 -21 67 -24 93 -24
240 1 153 3 171 29 250 99 303 368 537 666 581 80 11 285 2 355 -17z m2705
-302 c0 -66 -25 -313 -46 -452 -49 -330 -136 -621 -278 -935 -63 -141 -149
-300 -161 -299 -5 1 -19 19 -30 40 -12 22 -29 53 -39 69 l-18 30 60 120 c188
379 304 779 342 1180 l11 120 72 73 c39 39 75 72 79 72 5 0 8 -8 8 -18z
m-2772 -220 c43 -21 122 -96 405 -386 348 -356 454 -471 481 -525 27 -51 38
-147 25 -209 -15 -75 -25 -92 -102 -185 -77 -92 -116 -180 -124 -278 l-6 -67
-148 -148 c-101 -100 -152 -145 -159 -138 -15 15 -49 158 -58 245 -8 76 5 210
28 294 46 162 155 319 313 452 32 26 38 37 35 64 -2 25 -11 38 -35 52 -30 17
-34 17 -65 1 -55 -27 -220 -202 -267 -282 -24 -40 -47 -75 -52 -77 -4 -3 -95
83 -201 192 -106 109 -253 259 -326 334 -194 199 -222 245 -222 364 0 156 111
295 260 326 59 13 160 -1 218 -29z m2442 -230 c-21 -135 -91 -414 -132 -522
-71 -189 -91 -237 -146 -350 -101 -206 -190 -355 -344 -571 -108 -151 -219
-270 -670 -724 -291 -293 -408 -417 -408 -433 0 -30 34 -62 66 -62 18 0 46 19
94 65 l67 65 58 -22 c96 -37 95 -41 -72 -209 l-145 -146 -354 351 c-195 193
-354 355 -354 360 0 19 2355 2365 2358 2350 2 -8 -6 -77 -18 -152z m-296
-1265 c46 -98 57 -132 77 -226 22 -106 23 -158 8 -266 -29 -209 -114 -370
-278 -529 -67 -64 -76 -92 -39 -126 33 -30 60 -25 120 24 79 65 159 164 222
279 21 37 42 67 47 65 9 -3 582 -532 670 -618 80 -79 110 -147 112 -252 1 -69
-3 -92 -24 -138 -31 -68 -95 -132 -165 -166 -48 -23 -62 -26 -146 -22 -139 5
-156 16 -443 287 -81 77 -323 301 -410 381 -202 184 -236 235 -243 358 -6 95
15 158 82 247 70 94 80 111 100 173 20 59 26 172 13 242 l-8 45 133 152 c73
83 136 149 140 147 5 -3 19 -29 32 -57z m288 -220 c53 -34 207 -168 368 -321
47 -45 173 -162 280 -261 107 -98 227 -212 267 -252 185 -187 266 -413 243
-678 -11 -120 -17 -147 -59 -246 -111 -265 -347 -452 -636 -504 -67 -12 -259
-6 -332 11 -187 43 -293 114 -583 389 -41 39 -140 132 -220 206 -358 331 -406
378 -455 444 -76 101 -134 226 -148 322 -4 23 -10 48 -13 56 -3 10 88 121 261
318 147 167 278 315 292 329 l25 25 -7 -53 c-9 -65 -32 -114 -85 -178 -102
-123 -143 -286 -106 -426 34 -130 70 -175 361 -443 129 -119 204 -189 340
-316 62 -58 122 -113 220 -203 106 -97 257 -136 414 -106 130 25 265 133 320
255 38 86 44 120 39 226 -8 169 -45 229 -268 435 -618 570 -610 562 -600 592
24 73 27 315 5 396 -10 35 -1 33 77 -17z"/>
</g>
</svg>
