<?xml version="1.0" standalone="no"?>
<!DOCTYPE svg PUBLIC "-//W3C//DTD SVG 20010904//EN"
 "http://www.w3.org/TR/2001/REC-SVG-20010904/DTD/svg10.dtd">
<svg version="1.0" xmlns="http://www.w3.org/2000/svg"
 width="700.000000pt" height="700.000000pt" viewBox="0 0 700.000000 700.000000"
 preserveAspectRatio="xMidYMid meet">
<metadata>
Created by potrace 1.14, written by Peter Selinger 2001-2017
</metadata>
<g transform="translate(0.000000,700.000000) scale(0.100000,-0.100000)"
fill="#000000" stroke="none">
<path d="M4530 5903 c-1075 -421 -1957 -767 -1959 -770 -3 -2 33 -415 79 -918
l84 -914 101 -101 100 -100 1785 1785 c982 982 1780 1785 1775 1784 -6 0 -890
-345 -1965 -766z"/>
<path d="M4882 4717 l-1782 -1782 102 -101 103 -101 460 -42 c253 -23 627 -57
830 -76 204 -19 407 -38 452 -41 l82 -7 16 34 c27 60 1525 3892 1522 3895 -2
2 -805 -799 -1785 -1779z"/>
<path d="M2440 2905 l-175 -175 233 -233 232 -232 177 178 178 177 -230 230
c-126 126 -232 230 -235 230 -3 0 -84 -79 -180 -175z"/>
<path d="M1912 2377 l-184 -184 89 -59 c112 -74 243 -205 317 -317 l59 -89
184 184 183 183 -232 232 c-128 128 -233 233 -233 233 0 0 -83 -83 -183 -183z"/>
<path d="M730 2119 c-47 -22 -113 -59 -148 -82 -51 -34 -62 -46 -56 -62 26
-83 19 -105 -60 -195 -278 -315 -309 -780 -76 -1129 232 -346 659 -499 1053
-375 192 61 365 185 483 349 52 72 119 217 146 315 31 118 31 337 -1 455 -89
331 -345 588 -676 676 -96 26 -324 32 -417 11 -51 -12 -62 -11 -93 4 -20 9
-43 30 -51 45 -8 16 -16 29 -17 29 -1 0 -40 -19 -87 -41z m526 -260 c291 -40
515 -241 590 -529 39 -150 14 -345 -64 -495 -52 -101 -191 -238 -292 -288
-280 -139 -599 -89 -815 128 -124 125 -183 244 -204 413 -50 401 264 762 681
781 15 0 61 -4 104 -10z"/>
</g>
</svg>
